<svg xmlns="http://www.w3.org/2000/svg" xmlns:xlink="http://www.w3.org/1999/xlink" viewBox="0 0 501.6 501.6"><defs><linearGradient id="a"><stop offset="0" stop-color="#699ad7"/><stop offset=".2" stop-color="#7eb1dd"/><stop offset="1" stop-color="#7ebae4"/></linearGradient><linearGradient id="b"><stop offset="0" stop-color="#415e9a"/><stop offset=".2" stop-color="#4a6baf"/><stop offset="1" stop-color="#5277c3"/></linearGradient><linearGradient xlink:href="#a" id="c" x1="200.6" x2="290.1" y1="351.4" y2="506.2" gradientTransform="translate(70.7 -1055.2)" gradientUnits="userSpaceOnUse"/><linearGradient xlink:href="#b" id="e" x1="-584.2" x2="-496.3" y1="782.3" y2="937.7" gradientTransform="translate(864.7 -1491.3)" gradientUnits="userSpaceOnUse"/></defs><g transform="translate(-156.5 966.5) scale(.99994)"><path id="d" fill="url(#c)" fill-opacity="1" fill-rule="evenodd" stroke="none" stroke-dasharray="none" stroke-linecap="butt" stroke-linejoin="round" stroke-miterlimit="4" stroke-opacity="1" stroke-width="3" d="m309.5-710.4 122.2 211.7-56.1.5L343-555 310-498.5h-27.9L268-523.2l46.8-80.5-33.2-57.8z" opacity="1"/><use xlink:href="#d" width="100%" height="100%" transform="rotate(60 407.1 -715.8)"/><use xlink:href="#d" width="100%" height="100%" transform="rotate(-60 407.3 -715.7)"/><use xlink:href="#d" width="100%" height="100%" transform="rotate(180 407.4 -715.8)"/><path id="f" fill="url(#e)" fill-opacity="1" fill-rule="evenodd" stroke="none" stroke-dasharray="none" stroke-dashoffset="0" stroke-linecap="butt" stroke-linejoin="round" stroke-miterlimit="4" stroke-opacity="1" stroke-width="3" d="m309.5-710.4 122.2 211.7-56.1.5L343-555 310-498.5h-27.9L268-523.2l46.8-80.5-33.2-57.8z" clip-rule="nonzero" color="#000" color-interpolation="sRGB" color-interpolation-filters="linearRGB" color-rendering="auto" display="inline" image-rendering="auto" opacity="1" overflow="visible" shape-rendering="auto" style="isolation:auto;mix-blend-mode:normal;solid-color:#000;solid-opacity:1" text-rendering="auto" visibility="visible"/><use xlink:href="#f" width="100%" height="100%" transform="rotate(120 407.3 -716)"/><use xlink:href="#f" width="100%" height="100%" transform="rotate(-120 407.3 -715.9)"/></g></svg>